<mxfile host="app.diagrams.net" modified="2024-03-29T08:40:40.087Z" agent="Mozilla/5.0 (Windows NT 10.0; Win64; x64) AppleWebKit/537.36 (KHTML, like Gecko) Chrome/123.0.0.0 Safari/537.36" version="24.2.1" etag="v6aMafofydN7Jw8MBoYF" type="github">
  <diagram name="Page-1" id="yjiGQ3U-gduMwIbGw5T9">
    <mxGraphModel>
      <root>
        <mxCell id="0" />
        <mxCell id="1" parent="0" />
      </root>
    </mxGraphModel>
  </diagram>
</mxfile>
